<svg version="1.2" xmlns="http://www.w3.org/2000/svg" viewBox="0 0 336 109" width="336" height="109"><style>.a{fill:#f9c741}</style><path class="a" d="m13 54c0-22.1 17.9-40 40-40h230c22.1 0 40 17.9 40 40 0 22.1-17.9 40-40 40h-230c-22.1 0-40-17.9-40-40z"/><path  d="m54.5 70.9h-10.8v-36h32.4v5.1h5.4v15.4h-10.8v5.2h5.4v5.1h5.4v5.2h-16.2v-5.2h-5.4v-5.1h-5.4zm0-30.9v15.5h10.8v-5.2h5.4v-10.3zm64.9 30.9h-27v-5.2h-5.5v-15.4h5.5v-5.1h27v5.1h5.4v10.3h-27v5.1h21.6zm-21.6-20.5v5.1h16.2v-5.1zm64.8 20.5h-27v-5.1h-5.4v-30.8h10.8v10.2h21.6v5.2h5.4v15.4h-5.4zm-21.6-20.6v15.5h16.2v-15.5zm64.8 20.6h-27v-5.1h-5.4v-15.5h5.4v-5.1h27v5.1h5.4v15.5h-5.4zm-21.6-20.6v15.4h16.2v-15.4zm64.8 20.6h-27v-5.2h-5.4v-15.4h5.4v-5.1h27v5.1h5.5v15.4h-5.5zm-21.6-20.5v15.4h16.2v-15.4zm43.3 20.5h-10.8v-36h10.8v20.6h10.8v-5.1h5.4v-5.2h10.8v5.2h-5.4v5.1h-5.4v5.1h5.4v5.2h5.4v5.1h-10.8v-5.1h-5.4v-5.2h-10.8z"/></svg>
